<?xml version="1.0" encoding="UTF-8" standalone="no"?>
<svg
   version="1.1"
   x="0"
   y="0"
   viewBox="0 0 32 32"
   style="enable-background:new 0 0 32 32"
   xml:space="preserve"
   id="svg2"
   sodipodi:docname="logo.svg"
   inkscape:version="1.2 (dc2aedaf03, 2022-05-15)"
   xmlns:inkscape="http://www.inkscape.org/namespaces/inkscape"
   xmlns:sodipodi="http://sodipodi.sourceforge.net/DTD/sodipodi-0.dtd"
   xmlns="http://www.w3.org/2000/svg"
   xmlns:svg="http://www.w3.org/2000/svg"><defs
   id="defs18" /><sodipodi:namedview
   id="namedview16"
   pagecolor="#ffffff"
   bordercolor="#000000"
   borderopacity="0.25"
   inkscape:showpageshadow="2"
   inkscape:pageopacity="0.0"
   inkscape:pagecheckerboard="0"
   inkscape:deskcolor="#d1d1d1"
   showgrid="false"
   inkscape:zoom="32.09375"
   inkscape:cx="15.984421"
   inkscape:cy="15.984421"
   inkscape:window-width="2560"
   inkscape:window-height="1369"
   inkscape:window-x="-8"
   inkscape:window-y="-8"
   inkscape:window-maximized="1"
   inkscape:current-layer="svg2" />
  <style
   type="text/css"
   id="style4">
    .icon_x002D_canvas_x002D_transparent{opacity:0;fill:#f6f6f6}
  </style>
  <path
   id="path10"
   style="fill:#aa278f"
   d="M 6.2714844 3.4863281 C 6.2714844 3.4863281 5.5965935 3.5535001 5.3085938 3.6875 A 4.021 4.021 0 0 0 4.7871094 3.9824219 A 3.502 3.502 0 0 0 3.9902344 4.5722656 C 3.2972351 5.2602649 2.9289531 6.1736418 2.8769531 7.3066406 A 9.172 9.172 0 0 0 2.7890625 8.5898438 L 2.7890625 11.146484 A 6.802 6.802 0 0 1 2.6054688 12.519531 A 2.311 2.311 0 0 1 2.0742188 13.552734 A 2.67 2.67 0 0 0 1.8710938 13.748047 C 1.606094 13.986047 1.234187 14.260266 0.7421875 14.572266 C 0.3381879 14.834265 0.10234367 15.204688 0.02734375 15.679688 L 0.025390625 15.703125 A 2.195 2.195 0 0 0 0.001953125 15.990234 L 0 16.007812 L 0 16.017578 C 0 16.125578 0.004625011 16.226313 0.015625 16.320312 L 0.017578125 16.320312 C 0.049578093 16.605312 0.1288595 16.824563 0.25585938 16.976562 C 0.4268592 17.180562 0.71414103 17.411969 1.1191406 17.667969 C 1.5251402 17.923968 1.854469 18.199141 2.1054688 18.494141 C 2.3574685 18.79014 2.5477814 19.228547 2.6757812 19.810547 C 2.7247812 20.037547 2.7621094 20.529204 2.7871094 21.283203 L 2.7871094 23.302734 C 2.7871094 23.682734 2.8182813 24.025563 2.8632812 24.351562 L 2.8671875 24.539062 C 2.8761875 25.321062 3.0478597 26.014188 3.3808594 26.617188 A 3.462 3.462 0 0 0 4.796875 28.019531 C 5.4078744 28.349531 6.102907 28.513672 6.8789062 28.513672 L 25.730469 28.513672 C 26.080468 28.513672 26.403407 28.4465 26.691406 28.3125 C 26.875406 28.2275 27.047891 28.126578 27.212891 28.017578 C 27.50389 27.858578 27.770766 27.664734 28.009766 27.427734 C 28.702765 26.739735 29.071047 25.826358 29.123047 24.693359 C 29.179047 24.29536 29.210938 23.870156 29.210938 23.410156 L 29.210938 20.851562 C 29.229937 20.356563 29.290531 19.898515 29.394531 19.478516 C 29.498531 19.059516 29.675781 18.716312 29.925781 18.445312 A 2.67 2.67 0 0 0 30.128906 18.25 C 30.393906 18.012 30.765813 17.739734 31.257812 17.427734 C 31.661812 17.165735 31.897656 16.793359 31.972656 16.318359 L 31.974609 16.318359 L 31.976562 16.296875 C 31.989562 16.204875 31.999 16.109766 32 16.009766 L 32 15.994141 L 32 15.984375 C 32 15.876375 31.995375 15.775641 31.984375 15.681641 L 31.982422 15.681641 C 31.950422 15.396641 31.87114 15.17739 31.744141 15.025391 C 31.573141 14.821391 31.285859 14.589984 30.880859 14.333984 A 4.275 4.275 0 0 1 29.894531 13.507812 C 29.642532 13.211813 29.452219 12.773406 29.324219 12.191406 C 29.275219 11.964406 29.237891 11.472749 29.212891 10.71875 L 29.212891 8.6972656 C 29.212891 8.317266 29.181719 7.9744372 29.136719 7.6484375 A 12.313 12.313 0 0 0 29.132812 7.4609375 C 29.123813 6.6789383 28.95214 5.9858119 28.619141 5.3828125 A 3.462 3.462 0 0 0 27.203125 3.9804688 C 26.592126 3.6504691 25.897093 3.4863281 25.121094 3.4863281 L 6.2714844 3.4863281 z M 24.101562 5.1386719 C 24.737562 5.1386719 25.297579 5.2666252 25.767578 5.515625 C 26.231578 5.7626248 26.586516 6.1035473 26.853516 6.5605469 C 27.120515 7.0185464 27.258625 7.5562037 27.265625 8.1582031 C 27.329625 11.7122 27.394219 12.423391 27.449219 12.650391 C 27.602219 13.28039 27.831391 13.758282 28.150391 14.113281 C 28.43739 14.432281 28.785547 14.716031 29.185547 14.957031 C 29.475547 15.132031 29.6865 15.297219 29.8125 15.449219 C 29.8475 15.492219 29.929687 15.630907 29.929688 16.003906 C 29.929688 16.386906 29.809062 16.632828 29.539062 16.798828 C 28.933063 17.171828 28.497031 17.496922 28.207031 17.794922 A 2.734 2.734 0 0 0 27.529297 19.035156 C 27.417297 19.472156 27.353031 20.085157 27.332031 20.910156 C 27.312031 21.683155 27.289625 22.651454 27.265625 23.814453 C 27.244625 24.755452 26.959578 25.481157 26.392578 26.035156 C 25.824579 26.589156 25.075562 26.859375 24.101562 26.859375 C 23.692563 26.859375 23.392031 26.781906 23.207031 26.628906 C 23.052031 26.500906 22.980469 26.30939 22.980469 26.025391 C 22.980469 25.846391 23.011219 25.689875 23.074219 25.546875 A 0.682 0.682 0 0 1 23.261719 25.277344 A 0.463 0.463 0 0 1 23.501953 25.183594 C 23.915953 25.128594 24.227125 25.056844 24.453125 24.964844 C 24.770125 24.833844 25.019781 24.586047 25.175781 24.248047 C 25.299781 23.979047 25.375203 23.624156 25.408203 23.160156 C 25.437203 22.758157 25.453125 22.192546 25.453125 21.435547 C 25.469125 20.374548 25.529766 19.538124 25.634766 18.953125 C 25.729766 18.423126 25.908969 17.967703 26.167969 17.595703 C 26.428968 17.220703 26.832235 16.858484 27.365234 16.521484 L 28.185547 16.003906 L 27.363281 15.488281 A 4.547 4.547 0 0 1 26.4375 14.744141 A 3.033 3.033 0 0 1 25.882812 13.847656 A 5.166 5.166 0 0 1 25.554688 12.509766 A 16.319 16.319 0 0 1 25.451172 10.548828 C 25.451172 9.7678289 25.436344 9.1827183 25.402344 8.7617188 C 25.363344 8.2727192 25.279531 7.9103904 25.144531 7.6503906 A 1.36 1.36 0 0 0 24.425781 6.9882812 C 24.202781 6.8992813 23.898953 6.8340625 23.501953 6.7890625 A 0.532 0.532 0 0 1 23.146484 6.5761719 C 23.036484 6.443172 22.980469 6.2322185 22.980469 5.9492188 C 22.980469 5.5392192 23.066564 5.1386719 24.101562 5.1386719 z M 7.8984375 5.140625 C 8.3064371 5.140625 8.6089221 5.2161408 8.7949219 5.3691406 C 8.9489217 5.4971405 9.0195312 5.6906097 9.0195312 5.9746094 A 1.18 1.18 0 0 1 8.9277344 6.453125 A 0.662 0.662 0 0 1 8.7382812 6.7207031 A 0.463 0.463 0 0 1 8.4980469 6.8144531 C 8.0840473 6.8704531 7.7728748 6.9412032 7.546875 7.0332031 C 7.2298753 7.164203 6.9802186 7.4110472 6.8242188 7.7480469 C 6.7002189 8.0170466 6.6247968 8.3738911 6.5917969 8.8378906 C 6.5617969 9.2398902 6.546875 9.8055008 6.546875 10.5625 C 6.530875 11.624499 6.4702343 12.457969 6.3652344 13.042969 C 6.2702345 13.572968 6.091031 14.030344 5.8320312 14.402344 C 5.5690315 14.779343 5.165812 15.139563 4.6328125 15.476562 L 3.8144531 15.994141 L 4.6347656 16.511719 A 4.52 4.52 0 0 1 5.5625 17.255859 A 3.028 3.028 0 0 1 6.1152344 18.150391 A 5.174 5.174 0 0 1 6.4453125 19.490234 C 6.5133124 20.041234 6.5488281 20.700173 6.5488281 21.451172 A 24.159 24.159 0 0 0 6.5976562 23.236328 C 6.6366562 23.725328 6.7204689 24.09061 6.8554688 24.349609 A 1.367 1.367 0 0 0 7.5742188 25.009766 C 7.7982185 25.098766 8.1010473 25.163984 8.4980469 25.208984 A 0.537 0.537 0 0 1 8.8554688 25.421875 C 8.9644686 25.555875 9.0195312 25.765828 9.0195312 26.048828 C 9.0195313 26.459828 8.9334365 26.859375 7.8984375 26.859375 C 7.2624381 26.859375 6.7024214 26.734375 6.2324219 26.484375 C 5.7694223 26.238375 5.4154372 25.8955 5.1484375 25.4375 C 4.8814378 24.9785 4.741375 24.443796 4.734375 23.841797 C 4.6703751 20.2878 4.6057812 19.576609 4.5507812 19.349609 C 4.3977814 18.71961 4.1686091 18.239765 3.8496094 17.884766 C 3.5626097 17.565766 3.2144527 17.282969 2.8144531 17.042969 C 2.5254534 16.868969 2.3144999 16.701828 2.1875 16.548828 C 2.1525 16.505828 2.0722656 16.36714 2.0722656 15.994141 C 2.0722656 15.610141 2.1928909 15.367172 2.4628906 15.201172 C 3.06889 14.828172 3.503969 14.501125 3.7929688 14.203125 A 2.731 2.731 0 0 0 4.4726562 12.964844 C 4.5846561 12.527844 4.6489219 11.914843 4.6699219 11.089844 A 588.806 588.806 0 0 0 4.734375 8.1855469 C 4.755375 7.2445478 5.0404224 6.5168901 5.6074219 5.9628906 C 6.1754213 5.4088912 6.9244385 5.140625 7.8984375 5.140625 z M 15.714844 6.9375 A 6.59 6.59 0 0 1 16.240234 6.9375 L 16.240234 6.9492188 A 2.033 2.033 0 0 1 17.955078 8.8925781 C 17.955078 9.7195773 17.513672 10.080281 17.513672 10.113281 C 17.074672 10.575281 17.35072 11.106016 18.136719 11.041016 C 18.136719 11.041016 21.335484 11.057016 21.396484 11.041016 A 0.769 0.769 0 0 1 21.957031 11.78125 L 21.957031 15.214844 C 21.816031 15.613843 21.428125 15.693328 21.078125 15.361328 C 21.045125 15.361328 20.684421 14.917969 19.857422 14.917969 A 2.03 2.03 0 0 0 17.914062 16.632812 L 17.902344 16.632812 A 6.59 6.59 0 0 0 17.902344 17.158203 L 17.914062 17.158203 A 2.033 2.033 0 0 0 19.857422 18.873047 C 20.684421 18.873047 21.045125 18.431641 21.078125 18.431641 C 21.438125 18.089641 21.821078 18.131079 21.955078 18.580078 L 21.957031 22.289062 A 0.75 0.75 0 0 1 21.205078 23.041016 L 10.748047 23.041016 A 0.75 0.75 0 0 1 9.9980469 22.289062 L 9.9980469 11.78125 A 0.77 0.77 0 0 1 10.560547 11.041016 C 10.621547 11.057016 13.818359 11.041016 13.818359 11.041016 C 14.696358 11.083016 14.882359 10.575281 14.443359 10.113281 C 14.443359 10.080281 14 9.7195773 14 8.8925781 A 2.03 2.03 0 0 1 15.714844 6.9492188 L 15.714844 6.9375 z " />
  <g
   id="iconFg">

  </g>
</svg>
